<?xml version="1.0" encoding="UTF-8" standalone="no"?>
<!DOCTYPE svg PUBLIC "-//W3C//DTD SVG 1.1//EN"
 "http://www.w3.org/Graphics/SVG/1.1/DTD/svg11.dtd">
<!-- Generated by graphviz version 13.1.0 (20250701.0955)
 -->
<!-- Title: tea5767_basic_init Pages: 1 -->
<svg width="282pt" height="1200pt"
 viewBox="0.00 0.00 282.00 1200.00" xmlns="http://www.w3.org/2000/svg" xmlns:xlink="http://www.w3.org/1999/xlink">
<g id="graph0" class="graph" transform="scale(1 1) rotate(0) translate(4 1196)">
<title>tea5767_basic_init</title>
<!-- Node1 -->
<g id="Node000001" class="node">
<title>Node1</title>
<g id="a_Node000001"><a xlink:title="basic example init">
<polygon fill="#999999" stroke="#666666" points="97,-588 0,-588 0,-568 97,-568 97,-588"/>
<text xml:space="preserve" text-anchor="middle" x="48.5" y="-574.5" font-family="Helvetica,sans-Serif" font-size="10.00">tea5767_basic_init</text>
</a>
</g>
</g>
<!-- Node2 -->
<g id="Node000002" class="node">
<title>Node2</title>
<g id="a_Node000002"><a xlink:href="group__tea5767__base__driver.html#ga0747fbac69707d8bd47d8fe8d46f01f8" target="_top" xlink:title="close the chip">
<polygon fill="white" stroke="#666666" points="242.75,-1192 163.75,-1192 163.75,-1172 242.75,-1172 242.75,-1192"/>
<text xml:space="preserve" text-anchor="middle" x="203.25" y="-1178.5" font-family="Helvetica,sans-Serif" font-size="10.00">tea5767_deinit</text>
</a>
</g>
</g>
<!-- Node1&#45;&gt;Node2 -->
<g id="edge1_Node000001_Node000002" class="edge">
<title>Node1&#45;&gt;Node2</title>
<g id="a_edge1_Node000001_Node000002"><a xlink:title=" ">
<path fill="none" stroke="#63b8ff" d="M49.49,-588.22C49.59,-658.75 53.64,-1072.95 133,-1163 138.27,-1168.98 145.22,-1173.15 152.68,-1176.06"/>
<polygon fill="#63b8ff" stroke="#63b8ff" points="151.43,-1179.33 162.02,-1178.92 153.48,-1172.64 151.43,-1179.33"/>
</a>
</g>
</g>
<!-- Node3 -->
<g id="Node000003" class="node">
<title>Node3</title>
<g id="a_Node000003"><a xlink:href="group__tea5767__base__driver.html#ga8c2cd2fb52ed36f45c2dc8037d06dc8e" target="_top" xlink:title="convert the frequency to the register raw data">
<polygon fill="white" stroke="#666666" points="271.25,-1154 135.25,-1154 135.25,-1122 271.25,-1122 271.25,-1154"/>
<text xml:space="preserve" text-anchor="start" x="143.25" y="-1140.5" font-family="Helvetica,sans-Serif" font-size="10.00">tea5767_frequency_convert</text>
<text xml:space="preserve" text-anchor="middle" x="203.25" y="-1128.5" font-family="Helvetica,sans-Serif" font-size="10.00">_to_register</text>
</a>
</g>
</g>
<!-- Node1&#45;&gt;Node3 -->
<g id="edge2_Node000001_Node000003" class="edge">
<title>Node1&#45;&gt;Node3</title>
<g id="a_edge2_Node000001_Node000003"><a xlink:title=" ">
<path fill="none" stroke="#63b8ff" d="M49.71,-588.13C51.31,-654.63 63.32,-1028.51 133,-1113 133.25,-1113.31 133.51,-1113.61 133.77,-1113.9"/>
<polygon fill="#63b8ff" stroke="#63b8ff" points="131.36,-1116.45 141.14,-1120.54 136.04,-1111.25 131.36,-1116.45"/>
</a>
</g>
</g>
<!-- Node4 -->
<g id="Node000004" class="node">
<title>Node4</title>
<g id="a_Node000004"><a xlink:href="group__tea5767__base__driver.html#ga998bfe312f16a1f445f10390946e3014" target="_top" xlink:title="initialize the chip">
<polygon fill="white" stroke="#666666" points="237.5,-1104 169,-1104 169,-1084 237.5,-1084 237.5,-1104"/>
<text xml:space="preserve" text-anchor="middle" x="203.25" y="-1090.5" font-family="Helvetica,sans-Serif" font-size="10.00">tea5767_init</text>
</a>
</g>
</g>
<!-- Node1&#45;&gt;Node4 -->
<g id="edge3_Node000001_Node000004" class="edge">
<title>Node1&#45;&gt;Node4</title>
<g id="a_edge3_Node000001_Node000004"><a xlink:title=" ">
<path fill="none" stroke="#63b8ff" d="M49.77,-588.3C51.66,-652.7 64.96,-999.69 133,-1075 139.49,-1082.18 148.41,-1086.75 157.69,-1089.64"/>
<polygon fill="#63b8ff" stroke="#63b8ff" points="156.61,-1092.98 167.16,-1091.95 158.27,-1086.18 156.61,-1092.98"/>
</a>
</g>
</g>
<!-- Node5 -->
<g id="Node000005" class="node">
<title>Node5</title>
<g id="a_Node000005"><a xlink:href="group__tea5767__interface__driver.html#ga356bc845594de92839622a3b95dbac9d" target="_top" xlink:title="interface print format data">
<polygon fill="white" stroke="#666666" points="265.62,-1066 140.88,-1066 140.88,-1034 265.62,-1034 265.62,-1066"/>
<text xml:space="preserve" text-anchor="start" x="148.88" y="-1052.5" font-family="Helvetica,sans-Serif" font-size="10.00">tea5767_interface_debug</text>
<text xml:space="preserve" text-anchor="middle" x="203.25" y="-1040.5" font-family="Helvetica,sans-Serif" font-size="10.00">_print</text>
</a>
</g>
</g>
<!-- Node1&#45;&gt;Node5 -->
<g id="edge4_Node000001_Node000005" class="edge">
<title>Node1&#45;&gt;Node5</title>
<g id="a_edge4_Node000001_Node000005"><a xlink:title=" ">
<path fill="none" stroke="#63b8ff" d="M50.07,-588.36C53.57,-648.8 74.07,-955.68 133,-1025 133.35,-1025.41 133.71,-1025.82 134.08,-1026.22"/>
<polygon fill="#63b8ff" stroke="#63b8ff" points="131.69,-1028.79 141.55,-1032.69 136.28,-1023.49 131.69,-1028.79"/>
</a>
</g>
</g>
<!-- Node6 -->
<g id="Node000006" class="node">
<title>Node6</title>
<g id="a_Node000006"><a xlink:href="group__tea5767__interface__driver.html#gada57151d96c43fee4f8c2f5e9ab4184c" target="_top" xlink:title="interface delay ms">
<polygon fill="white" stroke="#666666" points="273.5,-1016 133,-1016 133,-996 273.5,-996 273.5,-1016"/>
<text xml:space="preserve" text-anchor="middle" x="203.25" y="-1002.5" font-family="Helvetica,sans-Serif" font-size="10.00">tea5767_interface_delay_ms</text>
</a>
</g>
</g>
<!-- Node1&#45;&gt;Node6 -->
<g id="edge5_Node000001_Node000006" class="edge">
<title>Node1&#45;&gt;Node6</title>
<g id="a_edge5_Node000001_Node000006"><a xlink:title=" ">
<path fill="none" stroke="#63b8ff" d="M50.17,-588.29C54.13,-645.72 76.18,-926.28 133,-987 133.61,-987.65 134.23,-988.28 134.88,-988.88"/>
<polygon fill="#63b8ff" stroke="#63b8ff" points="132.8,-991.7 142.94,-994.77 136.93,-986.04 132.8,-991.7"/>
</a>
</g>
</g>
<!-- Node7 -->
<g id="Node000007" class="node">
<title>Node7</title>
<g id="a_Node000007"><a xlink:href="group__tea5767__interface__driver.html#ga6288cb915c733ce708bcd23d818a2067" target="_top" xlink:title="interface iic bus deinit">
<polygon fill="white" stroke="#666666" points="257.38,-978 149.12,-978 149.12,-946 257.38,-946 257.38,-978"/>
<text xml:space="preserve" text-anchor="start" x="157.12" y="-964.5" font-family="Helvetica,sans-Serif" font-size="10.00">tea5767_interface_iic</text>
<text xml:space="preserve" text-anchor="middle" x="203.25" y="-952.5" font-family="Helvetica,sans-Serif" font-size="10.00">_deinit</text>
</a>
</g>
</g>
<!-- Node1&#45;&gt;Node7 -->
<g id="edge6_Node000001_Node000007" class="edge">
<title>Node1&#45;&gt;Node7</title>
<g id="a_edge6_Node000001_Node000007"><a xlink:title=" ">
<path fill="none" stroke="#63b8ff" d="M50.58,-588.33C56.29,-641.37 84.65,-882.59 133,-937 134.93,-939.17 137.07,-941.16 139.35,-942.97"/>
<polygon fill="#63b8ff" stroke="#63b8ff" points="137.26,-945.79 147.55,-948.31 141.09,-939.92 137.26,-945.79"/>
</a>
</g>
</g>
<!-- Node8 -->
<g id="Node000008" class="node">
<title>Node8</title>
<g id="a_Node000008"><a xlink:href="group__tea5767__interface__driver.html#ga212350a8676a671a925c58f02835ad64" target="_top" xlink:title="interface iic bus init">
<polygon fill="white" stroke="#666666" points="266.38,-928 140.12,-928 140.12,-908 266.38,-908 266.38,-928"/>
<text xml:space="preserve" text-anchor="middle" x="203.25" y="-914.5" font-family="Helvetica,sans-Serif" font-size="10.00">tea5767_interface_iic_init</text>
</a>
</g>
</g>
<!-- Node1&#45;&gt;Node8 -->
<g id="edge7_Node000001_Node000008" class="edge">
<title>Node1&#45;&gt;Node8</title>
<g id="a_edge7_Node000001_Node000008"><a xlink:title=" ">
<path fill="none" stroke="#63b8ff" d="M50.79,-588.28C57.21,-637.97 87.3,-852.68 133,-899 133.75,-899.76 134.52,-900.48 135.32,-901.18"/>
<polygon fill="#63b8ff" stroke="#63b8ff" points="133.23,-903.99 143.45,-906.79 137.2,-898.23 133.23,-903.99"/>
</a>
</g>
</g>
<!-- Node9 -->
<g id="Node000009" class="node">
<title>Node9</title>
<g id="a_Node000009"><a xlink:href="group__tea5767__interface__driver.html#ga9489395bf5afdf0d06904cc06db2974c" target="_top" xlink:title="interface iic bus read command">
<polygon fill="white" stroke="#666666" points="257.38,-890 149.12,-890 149.12,-858 257.38,-858 257.38,-890"/>
<text xml:space="preserve" text-anchor="start" x="157.12" y="-876.5" font-family="Helvetica,sans-Serif" font-size="10.00">tea5767_interface_iic</text>
<text xml:space="preserve" text-anchor="middle" x="203.25" y="-864.5" font-family="Helvetica,sans-Serif" font-size="10.00">_read_cmd</text>
</a>
</g>
</g>
<!-- Node1&#45;&gt;Node9 -->
<g id="edge8_Node000001_Node000009" class="edge">
<title>Node1&#45;&gt;Node9</title>
<g id="a_edge8_Node000001_Node000009"><a xlink:title=" ">
<path fill="none" stroke="#63b8ff" d="M49.57,-588.46C50.39,-628.12 58.6,-770.97 133,-849 134.97,-851.06 137.12,-852.96 139.41,-854.7"/>
<polygon fill="#63b8ff" stroke="#63b8ff" points="137.21,-857.45 147.53,-859.85 140.96,-851.53 137.21,-857.45"/>
</a>
</g>
</g>
<!-- Node10 -->
<g id="Node000010" class="node">
<title>Node10</title>
<g id="a_Node000010"><a xlink:href="group__tea5767__interface__driver.html#gab838dd4bcc739186bed222e5be508833" target="_top" xlink:title="interface iic bus write command">
<polygon fill="white" stroke="#666666" points="257.38,-840 149.12,-840 149.12,-808 257.38,-808 257.38,-840"/>
<text xml:space="preserve" text-anchor="start" x="157.12" y="-826.5" font-family="Helvetica,sans-Serif" font-size="10.00">tea5767_interface_iic</text>
<text xml:space="preserve" text-anchor="middle" x="203.25" y="-814.5" font-family="Helvetica,sans-Serif" font-size="10.00">_write_cmd</text>
</a>
</g>
</g>
<!-- Node1&#45;&gt;Node10 -->
<g id="edge9_Node000001_Node000010" class="edge">
<title>Node1&#45;&gt;Node10</title>
<g id="a_edge9_Node000001_Node000010"><a xlink:title=" ">
<path fill="none" stroke="#63b8ff" d="M50.41,-588.43C53.98,-623.3 70.19,-737.11 133,-799 134.99,-800.96 137.15,-802.77 139.43,-804.44"/>
<polygon fill="#63b8ff" stroke="#63b8ff" points="137.1,-807.12 147.45,-809.41 140.79,-801.17 137.1,-807.12"/>
</a>
</g>
</g>
<!-- Node11 -->
<g id="Node000011" class="node">
<title>Node11</title>
<g id="a_Node000011"><a xlink:href="group__tea5767__base__driver.html#gaf32b25e725684e5dbe89ea0f4a5c0cce" target="_top" xlink:title="set the band">
<polygon fill="white" stroke="#666666" points="251,-790 155.5,-790 155.5,-770 251,-770 251,-790"/>
<text xml:space="preserve" text-anchor="middle" x="203.25" y="-776.5" font-family="Helvetica,sans-Serif" font-size="10.00">tea5767_set_band</text>
</a>
</g>
</g>
<!-- Node1&#45;&gt;Node11 -->
<g id="edge10_Node000001_Node000011" class="edge">
<title>Node1&#45;&gt;Node11</title>
<g id="a_edge10_Node000001_Node000011"><a xlink:title=" ">
<path fill="none" stroke="#63b8ff" d="M51.06,-588.11C56.36,-619 76.63,-713.01 133,-761 136.58,-764.05 140.6,-766.61 144.87,-768.76"/>
<polygon fill="#63b8ff" stroke="#63b8ff" points="143.18,-771.85 153.75,-772.49 145.89,-765.39 143.18,-771.85"/>
</a>
</g>
</g>
<!-- Node12 -->
<g id="Node000012" class="node">
<title>Node12</title>
<g id="a_Node000012"><a xlink:href="group__tea5767__base__driver.html#gaa095fbb79ab02d54a33299e02e289ec0" target="_top" xlink:title="set the sound channel">
<polygon fill="white" stroke="#666666" points="257.38,-752 149.12,-752 149.12,-732 257.38,-732 257.38,-752"/>
<text xml:space="preserve" text-anchor="middle" x="203.25" y="-738.5" font-family="Helvetica,sans-Serif" font-size="10.00">tea5767_set_channel</text>
</a>
</g>
</g>
<!-- Node1&#45;&gt;Node12 -->
<g id="edge11_Node000001_Node000012" class="edge">
<title>Node1&#45;&gt;Node12</title>
<g id="a_edge11_Node000001_Node000012"><a xlink:title=" ">
<path fill="none" stroke="#63b8ff" d="M52.39,-588.25C60.44,-614.81 85.65,-686.4 133,-723 134.78,-724.37 136.64,-725.65 138.58,-726.83"/>
<polygon fill="#63b8ff" stroke="#63b8ff" points="136.92,-729.91 147.42,-731.32 140.09,-723.67 136.92,-729.91"/>
</a>
</g>
</g>
<!-- Node13 -->
<g id="Node000013" class="node">
<title>Node13</title>
<g id="a_Node000013"><a xlink:href="group__tea5767__base__driver.html#gaa3941822400387f8cd59d1e573811f93" target="_top" xlink:title="set the clock">
<polygon fill="white" stroke="#666666" points="252.12,-714 154.38,-714 154.38,-694 252.12,-694 252.12,-714"/>
<text xml:space="preserve" text-anchor="middle" x="203.25" y="-700.5" font-family="Helvetica,sans-Serif" font-size="10.00">tea5767_set_clock</text>
</a>
</g>
</g>
<!-- Node1&#45;&gt;Node13 -->
<g id="edge12_Node000001_Node000013" class="edge">
<title>Node1&#45;&gt;Node13</title>
<g id="a_edge12_Node000001_Node000013"><a xlink:title=" ">
<path fill="none" stroke="#63b8ff" d="M54.61,-588.33C65.75,-609.77 94.38,-659.25 133,-685 136.26,-687.17 139.77,-689.1 143.41,-690.81"/>
<polygon fill="#63b8ff" stroke="#63b8ff" points="141.95,-693.99 152.53,-694.5 144.57,-687.5 141.95,-693.99"/>
</a>
</g>
</g>
<!-- Node14 -->
<g id="Node000014" class="node">
<title>Node14</title>
<g id="a_Node000014"><a xlink:href="group__tea5767__base__driver.html#ga8bb8a726d72fead5b58da6f7c58b67b8" target="_top" xlink:title="set the de emphasis">
<polygon fill="white" stroke="#666666" points="269.38,-676 137.12,-676 137.12,-656 269.38,-656 269.38,-676"/>
<text xml:space="preserve" text-anchor="middle" x="203.25" y="-662.5" font-family="Helvetica,sans-Serif" font-size="10.00">tea5767_set_de_emphasis</text>
</a>
</g>
</g>
<!-- Node1&#45;&gt;Node14 -->
<g id="edge13_Node000001_Node000014" class="edge">
<title>Node1&#45;&gt;Node14</title>
<g id="a_edge13_Node000001_Node000014"><a xlink:title=" ">
<path fill="none" stroke="#63b8ff" d="M58.78,-588.01C73.24,-603 102.63,-631.22 133,-647 136.26,-648.7 139.69,-650.25 143.21,-651.68"/>
<polygon fill="#63b8ff" stroke="#63b8ff" points="141.92,-654.94 152.51,-655.07 144.31,-648.36 141.92,-654.94"/>
</a>
</g>
</g>
<!-- Node15 -->
<g id="Node000015" class="node">
<title>Node15</title>
<g id="a_Node000015"><a xlink:href="group__tea5767__base__driver.html#ga3a41b10b90c74323d680cd3a24186d12" target="_top" xlink:title="enable or disable high cut control">
<polygon fill="white" stroke="#666666" points="258.88,-638 147.62,-638 147.62,-606 258.88,-606 258.88,-638"/>
<text xml:space="preserve" text-anchor="start" x="155.62" y="-624.5" font-family="Helvetica,sans-Serif" font-size="10.00">tea5767_set_high_cut</text>
<text xml:space="preserve" text-anchor="middle" x="203.25" y="-612.5" font-family="Helvetica,sans-Serif" font-size="10.00">_control</text>
</a>
</g>
</g>
<!-- Node1&#45;&gt;Node15 -->
<g id="edge14_Node000001_Node000015" class="edge">
<title>Node1&#45;&gt;Node15</title>
<g id="a_edge14_Node000001_Node000015"><a xlink:title=" ">
<path fill="none" stroke="#63b8ff" d="M85.7,-588.43C100.9,-592.8 119.06,-598.04 136.47,-603.05"/>
<polygon fill="#63b8ff" stroke="#63b8ff" points="135.15,-606.31 145.73,-605.72 137.09,-599.59 135.15,-606.31"/>
</a>
</g>
</g>
<!-- Node16 -->
<g id="Node000016" class="node">
<title>Node16</title>
<g id="a_Node000016"><a xlink:href="group__tea5767__base__driver.html#gaf37b110d3cb8b3a900c8baccbb4ae12e" target="_top" xlink:title="enable or disable left mute">
<polygon fill="white" stroke="#666666" points="260.75,-588 145.75,-588 145.75,-568 260.75,-568 260.75,-588"/>
<text xml:space="preserve" text-anchor="middle" x="203.25" y="-574.5" font-family="Helvetica,sans-Serif" font-size="10.00">tea5767_set_left_mute</text>
</a>
</g>
</g>
<!-- Node1&#45;&gt;Node16 -->
<g id="edge15_Node000001_Node000016" class="edge">
<title>Node1&#45;&gt;Node16</title>
<g id="a_edge15_Node000001_Node000016"><a xlink:title=" ">
<path fill="none" stroke="#63b8ff" d="M97.41,-578C109.07,-578 121.76,-578 134.15,-578"/>
<polygon fill="#63b8ff" stroke="#63b8ff" points="133.9,-581.5 143.9,-578 133.9,-574.5 133.9,-581.5"/>
</a>
</g>
</g>
<!-- Node17 -->
<g id="Node000017" class="node">
<title>Node17</title>
<g id="a_Node000017"><a xlink:href="group__tea5767__base__driver.html#ga4c5874bf9a44ef8032403a194bef0840" target="_top" xlink:title="set the chip mode">
<polygon fill="white" stroke="#666666" points="252.5,-550 154,-550 154,-530 252.5,-530 252.5,-550"/>
<text xml:space="preserve" text-anchor="middle" x="203.25" y="-536.5" font-family="Helvetica,sans-Serif" font-size="10.00">tea5767_set_mode</text>
</a>
</g>
</g>
<!-- Node1&#45;&gt;Node17 -->
<g id="edge16_Node000001_Node000017" class="edge">
<title>Node1&#45;&gt;Node17</title>
<g id="a_edge16_Node000001_Node000017"><a xlink:title=" ">
<path fill="none" stroke="#63b8ff" d="M91.64,-567.52C109.42,-563.09 130.33,-557.89 149.14,-553.21"/>
<polygon fill="#63b8ff" stroke="#63b8ff" points="149.92,-556.63 158.77,-550.82 148.23,-549.83 149.92,-556.63"/>
</a>
</g>
</g>
<!-- Node18 -->
<g id="Node000018" class="node">
<title>Node18</title>
<g id="a_Node000018"><a xlink:href="group__tea5767__base__driver.html#ga8a0ee95b0a81010a981a06bac0228e17" target="_top" xlink:title="enable or disable the mute">
<polygon fill="white" stroke="#666666" points="251.38,-512 155.12,-512 155.12,-492 251.38,-492 251.38,-512"/>
<text xml:space="preserve" text-anchor="middle" x="203.25" y="-498.5" font-family="Helvetica,sans-Serif" font-size="10.00">tea5767_set_mute</text>
</a>
</g>
</g>
<!-- Node1&#45;&gt;Node18 -->
<g id="edge17_Node000001_Node000018" class="edge">
<title>Node1&#45;&gt;Node18</title>
<g id="a_edge17_Node000001_Node000018"><a xlink:title=" ">
<path fill="none" stroke="#63b8ff" d="M61.72,-567.71C77.33,-555.05 105.6,-533.68 133,-521 136.79,-519.25 140.77,-517.63 144.83,-516.14"/>
<polygon fill="#63b8ff" stroke="#63b8ff" points="145.87,-519.48 154.24,-512.97 143.64,-512.84 145.87,-519.48"/>
</a>
</g>
</g>
<!-- Node19 -->
<g id="Node000019" class="node">
<title>Node19</title>
<g id="a_Node000019"><a xlink:href="group__tea5767__base__driver.html#ga113ae128887abac6e52918abb62df461" target="_top" xlink:title="set the pll">
<polygon fill="white" stroke="#666666" points="245.38,-474 161.12,-474 161.12,-454 245.38,-454 245.38,-474"/>
<text xml:space="preserve" text-anchor="middle" x="203.25" y="-460.5" font-family="Helvetica,sans-Serif" font-size="10.00">tea5767_set_pll</text>
</a>
</g>
</g>
<!-- Node1&#45;&gt;Node19 -->
<g id="edge18_Node000001_Node000019" class="edge">
<title>Node1&#45;&gt;Node19</title>
<g id="a_edge18_Node000001_Node000019"><a xlink:title=" ">
<path fill="none" stroke="#63b8ff" d="M55.65,-567.65C67.85,-548.05 97.07,-505.47 133,-483 138.22,-479.74 144,-477.03 149.94,-474.77"/>
<polygon fill="#63b8ff" stroke="#63b8ff" points="150.87,-478.15 159.25,-471.68 148.66,-471.51 150.87,-478.15"/>
</a>
</g>
</g>
<!-- Node20 -->
<g id="Node000020" class="node">
<title>Node20</title>
<g id="a_Node000020"><a xlink:href="group__tea5767__base__driver.html#ga7c1844233c40c71abed80527d6dd25a0" target="_top" xlink:title="set the port1 level">
<polygon fill="white" stroke="#666666" points="251.38,-436 155.12,-436 155.12,-416 251.38,-416 251.38,-436"/>
<text xml:space="preserve" text-anchor="middle" x="203.25" y="-422.5" font-family="Helvetica,sans-Serif" font-size="10.00">tea5767_set_port1</text>
</a>
</g>
</g>
<!-- Node1&#45;&gt;Node20 -->
<g id="edge19_Node000001_Node000020" class="edge">
<title>Node1&#45;&gt;Node20</title>
<g id="a_edge19_Node000001_Node000020"><a xlink:title=" ">
<path fill="none" stroke="#63b8ff" d="M53.04,-567.5C62.1,-542.3 88.57,-478.01 133,-445 136.4,-442.47 140.12,-440.28 144.02,-438.38"/>
<polygon fill="#63b8ff" stroke="#63b8ff" points="145.32,-441.63 153.23,-434.58 142.65,-435.16 145.32,-441.63"/>
</a>
</g>
</g>
<!-- Node21 -->
<g id="Node000021" class="node">
<title>Node21</title>
<g id="a_Node000021"><a xlink:href="group__tea5767__base__driver.html#ga620508b6c31f5a0c7ff4d626749b1fb1" target="_top" xlink:title="enable or disable port1 as search indicator">
<polygon fill="white" stroke="#666666" points="259.25,-398 147.25,-398 147.25,-366 259.25,-366 259.25,-398"/>
<text xml:space="preserve" text-anchor="start" x="155.25" y="-384.5" font-family="Helvetica,sans-Serif" font-size="10.00">tea5767_set_port1_as</text>
<text xml:space="preserve" text-anchor="middle" x="203.25" y="-372.5" font-family="Helvetica,sans-Serif" font-size="10.00">_search_indicator</text>
</a>
</g>
</g>
<!-- Node1&#45;&gt;Node21 -->
<g id="edge20_Node000001_Node000021" class="edge">
<title>Node1&#45;&gt;Node21</title>
<g id="a_edge20_Node000001_Node000021"><a xlink:title=" ">
<path fill="none" stroke="#63b8ff" d="M51.62,-567.91C58.26,-538.72 81.37,-453.34 133,-407 134.44,-405.71 135.95,-404.48 137.52,-403.32"/>
<polygon fill="#63b8ff" stroke="#63b8ff" points="139.17,-406.41 145.76,-398.12 135.44,-400.49 139.17,-406.41"/>
</a>
</g>
</g>
<!-- Node22 -->
<g id="Node000022" class="node">
<title>Node22</title>
<g id="a_Node000022"><a xlink:href="group__tea5767__base__driver.html#gafb8cc02e9b8de758bd0058f8283d4abd" target="_top" xlink:title="set the port2 level">
<polygon fill="white" stroke="#666666" points="251.38,-348 155.12,-348 155.12,-328 251.38,-328 251.38,-348"/>
<text xml:space="preserve" text-anchor="middle" x="203.25" y="-334.5" font-family="Helvetica,sans-Serif" font-size="10.00">tea5767_set_port2</text>
</a>
</g>
</g>
<!-- Node1&#45;&gt;Node22 -->
<g id="edge21_Node000001_Node000022" class="edge">
<title>Node1&#45;&gt;Node22</title>
<g id="a_edge21_Node000001_Node000022"><a xlink:title=" ">
<path fill="none" stroke="#63b8ff" d="M50.2,-567.62C53.15,-532.44 67.65,-416.51 133,-357 136.38,-353.92 140.21,-351.34 144.29,-349.17"/>
<polygon fill="#63b8ff" stroke="#63b8ff" points="145.68,-352.38 153.46,-345.18 142.89,-345.96 145.68,-352.38"/>
</a>
</g>
</g>
<!-- Node23 -->
<g id="Node000023" class="node">
<title>Node23</title>
<g id="a_Node000023"><a xlink:href="group__tea5767__base__driver.html#ga0f7e6c920425f29a36ba1c8f577d34c1" target="_top" xlink:title="enable or disable right mute">
<polygon fill="white" stroke="#666666" points="263.38,-310 143.12,-310 143.12,-290 263.38,-290 263.38,-310"/>
<text xml:space="preserve" text-anchor="middle" x="203.25" y="-296.5" font-family="Helvetica,sans-Serif" font-size="10.00">tea5767_set_right_mute</text>
</a>
</g>
</g>
<!-- Node1&#45;&gt;Node23 -->
<g id="edge22_Node000001_Node000023" class="edge">
<title>Node1&#45;&gt;Node23</title>
<g id="a_edge22_Node000001_Node000023"><a xlink:title=" ">
<path fill="none" stroke="#63b8ff" d="M49.55,-567.55C50.32,-528.59 58.41,-390.37 133,-319 133.9,-318.14 134.84,-317.31 135.8,-316.53"/>
<polygon fill="#63b8ff" stroke="#63b8ff" points="137.5,-319.6 143.97,-311.22 133.68,-313.73 137.5,-319.6"/>
</a>
</g>
</g>
<!-- Node24 -->
<g id="Node000024" class="node">
<title>Node24</title>
<g id="a_Node000024"><a xlink:href="group__tea5767__base__driver.html#ga3eb73e7d515d57f976116da808e1d661" target="_top" xlink:title="set the search mode">
<polygon fill="white" stroke="#666666" points="269.75,-272 136.75,-272 136.75,-252 269.75,-252 269.75,-272"/>
<text xml:space="preserve" text-anchor="middle" x="203.25" y="-258.5" font-family="Helvetica,sans-Serif" font-size="10.00">tea5767_set_search_mode</text>
</a>
</g>
</g>
<!-- Node1&#45;&gt;Node24 -->
<g id="edge23_Node000001_Node000024" class="edge">
<title>Node1&#45;&gt;Node24</title>
<g id="a_edge23_Node000001_Node000024"><a xlink:title=" ">
<path fill="none" stroke="#63b8ff" d="M49.05,-567.54C47.81,-525.16 49.04,-364.44 133,-281 133.75,-280.25 134.54,-279.53 135.34,-278.84"/>
<polygon fill="#63b8ff" stroke="#63b8ff" points="137.22,-281.79 143.51,-273.28 133.28,-276.01 137.22,-281.79"/>
</a>
</g>
</g>
<!-- Node25 -->
<g id="Node000025" class="node">
<title>Node25</title>
<g id="a_Node000025"><a xlink:href="group__tea5767__base__driver.html#ga1ed215265daf7dd14f9ce12508b6973b" target="_top" xlink:title="set the search stop level">
<polygon fill="white" stroke="#666666" points="255.12,-234 151.38,-234 151.38,-202 255.12,-202 255.12,-234"/>
<text xml:space="preserve" text-anchor="start" x="159.38" y="-220.5" font-family="Helvetica,sans-Serif" font-size="10.00">tea5767_set_search</text>
<text xml:space="preserve" text-anchor="middle" x="203.25" y="-208.5" font-family="Helvetica,sans-Serif" font-size="10.00">_stop_level</text>
</a>
</g>
</g>
<!-- Node1&#45;&gt;Node25 -->
<g id="edge24_Node000001_Node000025" class="edge">
<title>Node1&#45;&gt;Node25</title>
<g id="a_edge24_Node000001_Node000025"><a xlink:title=" ">
<path fill="none" stroke="#63b8ff" d="M50.76,-567.69C57.15,-516.85 87.51,-293.39 133,-243 135.48,-240.25 138.29,-237.8 141.32,-235.62"/>
<polygon fill="#63b8ff" stroke="#63b8ff" points="142.88,-238.77 149.67,-230.63 139.29,-232.76 142.88,-238.77"/>
</a>
</g>
</g>
<!-- Node26 -->
<g id="Node000026" class="node">
<title>Node26</title>
<g id="a_Node000026"><a xlink:href="group__tea5767__base__driver.html#ga40665187779fcf2056cb4b6a561ce619" target="_top" xlink:title="set the side injection">
<polygon fill="white" stroke="#666666" points="270.12,-184 136.38,-184 136.38,-164 270.12,-164 270.12,-184"/>
<text xml:space="preserve" text-anchor="middle" x="203.25" y="-170.5" font-family="Helvetica,sans-Serif" font-size="10.00">tea5767_set_side_injection</text>
</a>
</g>
</g>
<!-- Node1&#45;&gt;Node26 -->
<g id="edge25_Node000001_Node000026" class="edge">
<title>Node1&#45;&gt;Node26</title>
<g id="a_edge25_Node000001_Node000026"><a xlink:title=" ">
<path fill="none" stroke="#63b8ff" d="M50.32,-567.59C54.93,-511.92 79.26,-249.73 133,-193 133.61,-192.36 134.24,-191.73 134.89,-191.13"/>
<polygon fill="#63b8ff" stroke="#63b8ff" points="136.93,-193.97 142.99,-185.27 132.83,-188.3 136.93,-193.97"/>
</a>
</g>
</g>
<!-- Node27 -->
<g id="Node000027" class="node">
<title>Node27</title>
<g id="a_Node000027"><a xlink:href="group__tea5767__base__driver.html#ga919b6817d566981a62d16eab07a37a55" target="_top" xlink:title="enable or disable soft mute">
<polygon fill="white" stroke="#666666" points="262.25,-146 144.25,-146 144.25,-126 262.25,-126 262.25,-146"/>
<text xml:space="preserve" text-anchor="middle" x="203.25" y="-132.5" font-family="Helvetica,sans-Serif" font-size="10.00">tea5767_set_soft_mute</text>
</a>
</g>
</g>
<!-- Node1&#45;&gt;Node27 -->
<g id="edge26_Node000001_Node000027" class="edge">
<title>Node1&#45;&gt;Node27</title>
<g id="a_edge26_Node000001_Node000027"><a xlink:title=" ">
<path fill="none" stroke="#63b8ff" d="M50.1,-567.75C53.69,-509.25 74.39,-218.05 133,-155 133.6,-154.35 134.23,-153.72 134.87,-153.11"/>
<polygon fill="#63b8ff" stroke="#63b8ff" points="136.92,-155.95 142.92,-147.21 132.79,-150.3 136.92,-155.95"/>
</a>
</g>
</g>
<!-- Node28 -->
<g id="Node000028" class="node">
<title>Node28</title>
<g id="a_Node000028"><a xlink:href="group__tea5767__base__driver.html#gaffaeb44aeb4e127f19509686f149f97f" target="_top" xlink:title="enable or disable standby">
<polygon fill="white" stroke="#666666" points="257.75,-108 148.75,-108 148.75,-88 257.75,-88 257.75,-108"/>
<text xml:space="preserve" text-anchor="middle" x="203.25" y="-94.5" font-family="Helvetica,sans-Serif" font-size="10.00">tea5767_set_standby</text>
</a>
</g>
</g>
<!-- Node1&#45;&gt;Node28 -->
<g id="edge27_Node000001_Node000028" class="edge">
<title>Node1&#45;&gt;Node28</title>
<g id="a_edge27_Node000001_Node000028"><a xlink:title=" ">
<path fill="none" stroke="#63b8ff" d="M49.92,-567.65C52.63,-505.89 69.58,-186.31 133,-117 134.74,-115.09 136.66,-113.37 138.71,-111.82"/>
<polygon fill="#63b8ff" stroke="#63b8ff" points="140.32,-114.93 147.11,-106.79 136.73,-108.92 140.32,-114.93"/>
</a>
</g>
</g>
<!-- Node29 -->
<g id="Node000029" class="node">
<title>Node29</title>
<g id="a_Node000029"><a xlink:href="group__tea5767__base__driver.html#gac8e121b5983d51cae2e02f576965c612" target="_top" xlink:title="enable or disable stereo noise cancelling">
<polygon fill="white" stroke="#666666" points="254,-70 152.5,-70 152.5,-38 254,-38 254,-70"/>
<text xml:space="preserve" text-anchor="start" x="160.5" y="-56.5" font-family="Helvetica,sans-Serif" font-size="10.00">tea5767_set_stereo</text>
<text xml:space="preserve" text-anchor="middle" x="203.25" y="-44.5" font-family="Helvetica,sans-Serif" font-size="10.00">_noise_cancelling</text>
</a>
</g>
</g>
<!-- Node1&#45;&gt;Node29 -->
<g id="edge28_Node000001_Node000029" class="edge">
<title>Node1&#45;&gt;Node29</title>
<g id="a_edge28_Node000001_Node000029"><a xlink:title=" ">
<path fill="none" stroke="#63b8ff" d="M49.84,-567.73C52.19,-503.5 67.75,-157.25 133,-79 135.74,-75.71 138.95,-72.86 142.45,-70.38"/>
<polygon fill="#63b8ff" stroke="#63b8ff" points="144.11,-73.47 151,-65.42 140.6,-67.41 144.11,-73.47"/>
</a>
</g>
</g>
<!-- Node30 -->
<g id="Node000030" class="node">
<title>Node30</title>
<g id="a_Node000030"><a xlink:href="group__tea5767__base__driver.html#ga21db695348540eefd1bca72bd980cbb1" target="_top" xlink:title="write the conf">
<polygon fill="white" stroke="#666666" points="253.62,-20 152.88,-20 152.88,0 253.62,0 253.62,-20"/>
<text xml:space="preserve" text-anchor="middle" x="203.25" y="-6.5" font-family="Helvetica,sans-Serif" font-size="10.00">tea5767_write_conf</text>
</a>
</g>
</g>
<!-- Node1&#45;&gt;Node30 -->
<g id="edge29_Node000001_Node000030" class="edge">
<title>Node1&#45;&gt;Node30</title>
<g id="a_edge29_Node000001_Node000030"><a xlink:title=" ">
<path fill="none" stroke="#63b8ff" d="M49.59,-567.53C50.42,-498.86 58.35,-112.92 133,-29 135.69,-25.97 138.82,-23.41 142.22,-21.24"/>
<polygon fill="#63b8ff" stroke="#63b8ff" points="143.71,-24.41 151.07,-16.79 140.56,-18.16 143.71,-24.41"/>
</a>
</g>
</g>
</g>
</svg>
