<?xml version="1.0" encoding="UTF-8" standalone="no"?>
<!DOCTYPE svg PUBLIC "-//W3C//DTD SVG 1.1//EN"
 "http://www.w3.org/Graphics/SVG/1.1/DTD/svg11.dtd">
<!-- Generated by graphviz version 13.1.0 (20250701.0955)
 -->
<!-- Title: tea5767_basic_search_up Pages: 1 -->
<svg width="314pt" height="332pt"
 viewBox="0.00 0.00 314.00 332.00" xmlns="http://www.w3.org/2000/svg" xmlns:xlink="http://www.w3.org/1999/xlink">
<g id="graph0" class="graph" transform="scale(1 1) rotate(0) translate(4 328)">
<title>tea5767_basic_search_up</title>
<!-- Node1 -->
<g id="Node000001" class="node">
<title>Node1</title>
<g id="a_Node000001"><a xlink:title="basic example search up">
<polygon fill="#999999" stroke="#666666" points="129.25,-172 0,-172 0,-152 129.25,-152 129.25,-172"/>
<text xml:space="preserve" text-anchor="middle" x="64.62" y="-158.5" font-family="Helvetica,sans-Serif" font-size="10.00">tea5767_basic_search_up</text>
</a>
</g>
</g>
<!-- Node2 -->
<g id="Node000002" class="node">
<title>Node2</title>
<g id="a_Node000002"><a xlink:href="group__tea5767__base__driver.html#ga8cfda17b3231100b1816bef347fb2cbf" target="_top" xlink:title="get the band limit flag">
<polygon fill="white" stroke="#666666" points="305.38,-324 165.62,-324 165.62,-304 305.38,-304 305.38,-324"/>
<text xml:space="preserve" text-anchor="middle" x="235.5" y="-310.5" font-family="Helvetica,sans-Serif" font-size="10.00">tea5767_get_band_limit_flag</text>
</a>
</g>
</g>
<!-- Node1&#45;&gt;Node2 -->
<g id="edge1_Node000001_Node000002" class="edge">
<title>Node1&#45;&gt;Node2</title>
<g id="a_edge1_Node000001_Node000002"><a xlink:title=" ">
<path fill="none" stroke="#63b8ff" d="M70.27,-172.13C82.22,-197.09 116.6,-261.87 165.25,-295 167.22,-296.34 169.29,-297.59 171.42,-298.75"/>
<polygon fill="#63b8ff" stroke="#63b8ff" points="169.88,-301.89 180.42,-302.93 172.82,-295.55 169.88,-301.89"/>
</a>
</g>
</g>
<!-- Node3 -->
<g id="Node000003" class="node">
<title>Node3</title>
<g id="a_Node000003"><a xlink:href="group__tea5767__base__driver.html#ga00f7f106c8e17427b2796a23382a6228" target="_top" xlink:title="get the ready flag">
<polygon fill="white" stroke="#666666" points="295.25,-286 175.75,-286 175.75,-266 295.25,-266 295.25,-286"/>
<text xml:space="preserve" text-anchor="middle" x="235.5" y="-272.5" font-family="Helvetica,sans-Serif" font-size="10.00">tea5767_get_ready_flag</text>
</a>
</g>
</g>
<!-- Node1&#45;&gt;Node3 -->
<g id="edge2_Node000001_Node000003" class="edge">
<title>Node1&#45;&gt;Node3</title>
<g id="a_edge2_Node000001_Node000003"><a xlink:title=" ">
<path fill="none" stroke="#63b8ff" d="M73.46,-172.3C88.86,-191.83 125.1,-234.29 165.25,-257 168.1,-258.61 171.09,-260.09 174.17,-261.45"/>
<polygon fill="#63b8ff" stroke="#63b8ff" points="172.87,-264.7 183.46,-265.07 175.41,-258.18 172.87,-264.7"/>
</a>
</g>
</g>
<!-- Node4 -->
<g id="Node000004" class="node">
<title>Node4</title>
<g id="a_Node000004"><a xlink:href="group__tea5767__base__driver.html#ga3a8aaeb53a9b0889b2a8d5dad9bb80da" target="_top" xlink:title="get the searched pll">
<polygon fill="white" stroke="#666666" points="300.12,-248 170.88,-248 170.88,-228 300.12,-228 300.12,-248"/>
<text xml:space="preserve" text-anchor="middle" x="235.5" y="-234.5" font-family="Helvetica,sans-Serif" font-size="10.00">tea5767_get_searched_pll</text>
</a>
</g>
</g>
<!-- Node1&#45;&gt;Node4 -->
<g id="edge3_Node000001_Node000004" class="edge">
<title>Node1&#45;&gt;Node4</title>
<g id="a_edge3_Node000001_Node000004"><a xlink:title=" ">
<path fill="none" stroke="#63b8ff" d="M80.87,-172.36C99.9,-184.89 133.78,-205.93 165.25,-219 169.78,-220.88 174.55,-222.63 179.38,-224.25"/>
<polygon fill="#63b8ff" stroke="#63b8ff" points="177.95,-227.47 188.53,-227.12 180.04,-220.79 177.95,-227.47"/>
</a>
</g>
</g>
<!-- Node5 -->
<g id="Node000005" class="node">
<title>Node5</title>
<g id="a_Node000005"><a xlink:href="group__tea5767__interface__driver.html#gada57151d96c43fee4f8c2f5e9ab4184c" target="_top" xlink:title="interface delay ms">
<polygon fill="white" stroke="#666666" points="305.75,-210 165.25,-210 165.25,-190 305.75,-190 305.75,-210"/>
<text xml:space="preserve" text-anchor="middle" x="235.5" y="-196.5" font-family="Helvetica,sans-Serif" font-size="10.00">tea5767_interface_delay_ms</text>
</a>
</g>
</g>
<!-- Node1&#45;&gt;Node5 -->
<g id="edge4_Node000001_Node000005" class="edge">
<title>Node1&#45;&gt;Node5</title>
<g id="a_edge4_Node000001_Node000005"><a xlink:title=" ">
<path fill="none" stroke="#63b8ff" d="M112.22,-172.48C132.24,-176.99 155.85,-182.3 176.96,-187.05"/>
<polygon fill="#63b8ff" stroke="#63b8ff" points="176.06,-190.44 186.58,-189.22 177.59,-183.61 176.06,-190.44"/>
</a>
</g>
</g>
<!-- Node6 -->
<g id="Node000006" class="node">
<title>Node6</title>
<g id="a_Node000006"><a xlink:href="group__tea5767__base__driver.html#gace16a5db156fa0acfd6bfd5bbb302e34" target="_top" xlink:title="read the conf">
<polygon fill="white" stroke="#666666" points="284.75,-172 186.25,-172 186.25,-152 284.75,-152 284.75,-172"/>
<text xml:space="preserve" text-anchor="middle" x="235.5" y="-158.5" font-family="Helvetica,sans-Serif" font-size="10.00">tea5767_read_conf</text>
</a>
</g>
</g>
<!-- Node1&#45;&gt;Node6 -->
<g id="edge5_Node000001_Node000006" class="edge">
<title>Node1&#45;&gt;Node6</title>
<g id="a_edge5_Node000001_Node000006"><a xlink:title=" ">
<path fill="none" stroke="#63b8ff" d="M129.47,-162C144.21,-162 159.84,-162 174.41,-162"/>
<polygon fill="#63b8ff" stroke="#63b8ff" points="174.32,-165.5 184.32,-162 174.32,-158.5 174.32,-165.5"/>
</a>
</g>
</g>
<!-- Node7 -->
<g id="Node000007" class="node">
<title>Node7</title>
<g id="a_Node000007"><a xlink:href="group__tea5767__base__driver.html#ga4c5874bf9a44ef8032403a194bef0840" target="_top" xlink:title="set the chip mode">
<polygon fill="white" stroke="#666666" points="284.75,-134 186.25,-134 186.25,-114 284.75,-114 284.75,-134"/>
<text xml:space="preserve" text-anchor="middle" x="235.5" y="-120.5" font-family="Helvetica,sans-Serif" font-size="10.00">tea5767_set_mode</text>
</a>
</g>
</g>
<!-- Node1&#45;&gt;Node7 -->
<g id="edge6_Node000001_Node000007" class="edge">
<title>Node1&#45;&gt;Node7</title>
<g id="a_edge6_Node000001_Node000007"><a xlink:title=" ">
<path fill="none" stroke="#63b8ff" d="M112.22,-151.52C132.24,-147.01 155.85,-141.7 176.96,-136.95"/>
<polygon fill="#63b8ff" stroke="#63b8ff" points="177.59,-140.39 186.58,-134.78 176.06,-133.56 177.59,-140.39"/>
</a>
</g>
</g>
<!-- Node8 -->
<g id="Node000008" class="node">
<title>Node8</title>
<g id="a_Node000008"><a xlink:href="group__tea5767__base__driver.html#ga113ae128887abac6e52918abb62df461" target="_top" xlink:title="set the pll">
<polygon fill="white" stroke="#666666" points="277.62,-96 193.38,-96 193.38,-76 277.62,-76 277.62,-96"/>
<text xml:space="preserve" text-anchor="middle" x="235.5" y="-82.5" font-family="Helvetica,sans-Serif" font-size="10.00">tea5767_set_pll</text>
</a>
</g>
</g>
<!-- Node1&#45;&gt;Node8 -->
<g id="edge7_Node000001_Node000008" class="edge">
<title>Node1&#45;&gt;Node8</title>
<g id="a_edge7_Node000001_Node000008"><a xlink:title=" ">
<path fill="none" stroke="#63b8ff" d="M80.87,-151.64C99.9,-139.11 133.78,-118.07 165.25,-105 170.58,-102.78 176.25,-100.75 181.96,-98.9"/>
<polygon fill="#63b8ff" stroke="#63b8ff" points="182.91,-102.27 191.47,-96.02 180.88,-95.57 182.91,-102.27"/>
</a>
</g>
</g>
<!-- Node9 -->
<g id="Node000009" class="node">
<title>Node9</title>
<g id="a_Node000009"><a xlink:href="group__tea5767__base__driver.html#ga3eb73e7d515d57f976116da808e1d661" target="_top" xlink:title="set the search mode">
<polygon fill="white" stroke="#666666" points="302,-58 169,-58 169,-38 302,-38 302,-58"/>
<text xml:space="preserve" text-anchor="middle" x="235.5" y="-44.5" font-family="Helvetica,sans-Serif" font-size="10.00">tea5767_set_search_mode</text>
</a>
</g>
</g>
<!-- Node1&#45;&gt;Node9 -->
<g id="edge8_Node000001_Node000009" class="edge">
<title>Node1&#45;&gt;Node9</title>
<g id="a_edge8_Node000001_Node000009"><a xlink:title=" ">
<path fill="none" stroke="#63b8ff" d="M73.46,-151.7C88.86,-132.17 125.1,-89.71 165.25,-67 168.1,-65.39 171.09,-63.91 174.17,-62.55"/>
<polygon fill="#63b8ff" stroke="#63b8ff" points="175.41,-65.82 183.46,-58.93 172.87,-59.3 175.41,-65.82"/>
</a>
</g>
</g>
<!-- Node10 -->
<g id="Node000010" class="node">
<title>Node10</title>
<g id="a_Node000010"><a xlink:href="group__tea5767__base__driver.html#ga21db695348540eefd1bca72bd980cbb1" target="_top" xlink:title="write the conf">
<polygon fill="white" stroke="#666666" points="285.88,-20 185.12,-20 185.12,0 285.88,0 285.88,-20"/>
<text xml:space="preserve" text-anchor="middle" x="235.5" y="-6.5" font-family="Helvetica,sans-Serif" font-size="10.00">tea5767_write_conf</text>
</a>
</g>
</g>
<!-- Node1&#45;&gt;Node10 -->
<g id="edge9_Node000001_Node000010" class="edge">
<title>Node1&#45;&gt;Node10</title>
<g id="a_edge9_Node000001_Node000010"><a xlink:title=" ">
<path fill="none" stroke="#63b8ff" d="M70.27,-151.87C82.22,-126.91 116.6,-62.13 165.25,-29 168.1,-27.06 171.13,-25.32 174.29,-23.76"/>
<polygon fill="#63b8ff" stroke="#63b8ff" points="175.44,-27.07 183.28,-19.94 172.7,-20.63 175.44,-27.07"/>
</a>
</g>
</g>
</g>
</svg>
