<?xml version="1.0" encoding="UTF-8" standalone="no"?>
<!DOCTYPE svg PUBLIC "-//W3C//DTD SVG 1.1//EN"
 "http://www.w3.org/Graphics/SVG/1.1/DTD/svg11.dtd">
<!-- Generated by graphviz version 13.1.0 (20250701.0955)
 -->
<!-- Title: tea5767_basic_get_frequency Pages: 1 -->
<svg width="326pt" height="116pt"
 viewBox="0.00 0.00 326.00 116.00" xmlns="http://www.w3.org/2000/svg" xmlns:xlink="http://www.w3.org/1999/xlink">
<g id="graph0" class="graph" transform="scale(1 1) rotate(0) translate(4 112)">
<title>tea5767_basic_get_frequency</title>
<!-- Node1 -->
<g id="Node000001" class="node">
<title>Node1</title>
<g id="a_Node000001"><a xlink:title="basic example get frequency">
<polygon fill="#999999" stroke="#666666" points="145.75,-58 0,-58 0,-38 145.75,-38 145.75,-58"/>
<text xml:space="preserve" text-anchor="middle" x="72.88" y="-44.5" font-family="Helvetica,sans-Serif" font-size="10.00">tea5767_basic_get_frequency</text>
</a>
</g>
</g>
<!-- Node2 -->
<g id="Node000002" class="node">
<title>Node2</title>
<g id="a_Node000002"><a xlink:href="group__tea5767__base__driver.html#gae225cc0894e0f096d5bd226dc0c9c6e3" target="_top" xlink:title="convert the register raw data to the frequency">
<polygon fill="white" stroke="#666666" points="317.75,-108 181.75,-108 181.75,-76 317.75,-76 317.75,-108"/>
<text xml:space="preserve" text-anchor="start" x="189.75" y="-94.5" font-family="Helvetica,sans-Serif" font-size="10.00">tea5767_frequency_convert</text>
<text xml:space="preserve" text-anchor="middle" x="249.75" y="-82.5" font-family="Helvetica,sans-Serif" font-size="10.00">_to_data</text>
</a>
</g>
</g>
<!-- Node1&#45;&gt;Node2 -->
<g id="edge1_Node000001_Node000002" class="edge">
<title>Node1&#45;&gt;Node2</title>
<g id="a_edge1_Node000001_Node000002"><a xlink:title=" ">
<path fill="none" stroke="#63b8ff" d="M115.32,-58.43C132.37,-62.72 152.68,-67.83 172.25,-72.75"/>
<polygon fill="#63b8ff" stroke="#63b8ff" points="171.32,-76.13 181.87,-75.17 173.02,-69.34 171.32,-76.13"/>
</a>
</g>
</g>
<!-- Node3 -->
<g id="Node000003" class="node">
<title>Node3</title>
<g id="a_Node000003"><a xlink:href="group__tea5767__base__driver.html#ga3a8aaeb53a9b0889b2a8d5dad9bb80da" target="_top" xlink:title="get the searched pll">
<polygon fill="white" stroke="#666666" points="314.38,-58 185.12,-58 185.12,-38 314.38,-38 314.38,-58"/>
<text xml:space="preserve" text-anchor="middle" x="249.75" y="-44.5" font-family="Helvetica,sans-Serif" font-size="10.00">tea5767_get_searched_pll</text>
</a>
</g>
</g>
<!-- Node1&#45;&gt;Node3 -->
<g id="edge2_Node000001_Node000003" class="edge">
<title>Node1&#45;&gt;Node3</title>
<g id="a_edge2_Node000001_Node000003"><a xlink:title=" ">
<path fill="none" stroke="#63b8ff" d="M146.01,-48C155.08,-48 164.37,-48 173.48,-48"/>
<polygon fill="#63b8ff" stroke="#63b8ff" points="173.37,-51.5 183.37,-48 173.37,-44.5 173.37,-51.5"/>
</a>
</g>
</g>
<!-- Node4 -->
<g id="Node000004" class="node">
<title>Node4</title>
<g id="a_Node000004"><a xlink:href="group__tea5767__base__driver.html#gace16a5db156fa0acfd6bfd5bbb302e34" target="_top" xlink:title="read the conf">
<polygon fill="white" stroke="#666666" points="299,-20 200.5,-20 200.5,0 299,0 299,-20"/>
<text xml:space="preserve" text-anchor="middle" x="249.75" y="-6.5" font-family="Helvetica,sans-Serif" font-size="10.00">tea5767_read_conf</text>
</a>
</g>
</g>
<!-- Node1&#45;&gt;Node4 -->
<g id="edge3_Node000001_Node000004" class="edge">
<title>Node1&#45;&gt;Node4</title>
<g id="a_edge3_Node000001_Node000004"><a xlink:title=" ">
<path fill="none" stroke="#63b8ff" d="M122.12,-37.52C142.96,-32.99 167.53,-27.65 189.47,-22.88"/>
<polygon fill="#63b8ff" stroke="#63b8ff" points="190.15,-26.32 199.18,-20.77 188.66,-19.47 190.15,-26.32"/>
</a>
</g>
</g>
</g>
</svg>
