<?xml version="1.0" encoding="UTF-8" standalone="no"?>
<!DOCTYPE svg PUBLIC "-//W3C//DTD SVG 1.1//EN"
 "http://www.w3.org/Graphics/SVG/1.1/DTD/svg11.dtd">
<!-- Generated by graphviz version 13.1.0 (20250701.0955)
 -->
<!-- Title: tea5767_basic_set_mute Pages: 1 -->
<svg width="289pt" height="180pt"
 viewBox="0.00 0.00 289.00 180.00" xmlns="http://www.w3.org/2000/svg" xmlns:xlink="http://www.w3.org/1999/xlink">
<g id="graph0" class="graph" transform="scale(1 1) rotate(0) translate(4 176)">
<title>tea5767_basic_set_mute</title>
<!-- Node1 -->
<g id="Node000001" class="node">
<title>Node1</title>
<g id="a_Node000001"><a xlink:title="basic example enable or disable mute">
<polygon fill="#999999" stroke="#666666" points="124.75,-96 0,-96 0,-76 124.75,-76 124.75,-96"/>
<text xml:space="preserve" text-anchor="middle" x="62.38" y="-82.5" font-family="Helvetica,sans-Serif" font-size="10.00">tea5767_basic_set_mute</text>
</a>
</g>
</g>
<!-- Node2 -->
<g id="Node000002" class="node">
<title>Node2</title>
<g id="a_Node000002"><a xlink:href="group__tea5767__base__driver.html#gaf37b110d3cb8b3a900c8baccbb4ae12e" target="_top" xlink:title="enable or disable left mute">
<polygon fill="white" stroke="#666666" points="278.38,-172 163.38,-172 163.38,-152 278.38,-152 278.38,-172"/>
<text xml:space="preserve" text-anchor="middle" x="220.88" y="-158.5" font-family="Helvetica,sans-Serif" font-size="10.00">tea5767_set_left_mute</text>
</a>
</g>
</g>
<!-- Node1&#45;&gt;Node2 -->
<g id="edge1_Node000001_Node000002" class="edge">
<title>Node1&#45;&gt;Node2</title>
<g id="a_edge1_Node000001_Node000002"><a xlink:title=" ">
<path fill="none" stroke="#63b8ff" d="M78.67,-96.38C97.38,-108.74 130.35,-129.41 160.75,-143 164.52,-144.68 168.48,-146.29 172.49,-147.8"/>
<polygon fill="#63b8ff" stroke="#63b8ff" points="171.11,-151.02 181.71,-151.07 173.45,-144.43 171.11,-151.02"/>
</a>
</g>
</g>
<!-- Node3 -->
<g id="Node000003" class="node">
<title>Node3</title>
<g id="a_Node000003"><a xlink:href="group__tea5767__base__driver.html#ga8a0ee95b0a81010a981a06bac0228e17" target="_top" xlink:title="enable or disable the mute">
<polygon fill="white" stroke="#666666" points="269,-134 172.75,-134 172.75,-114 269,-114 269,-134"/>
<text xml:space="preserve" text-anchor="middle" x="220.88" y="-120.5" font-family="Helvetica,sans-Serif" font-size="10.00">tea5767_set_mute</text>
</a>
</g>
</g>
<!-- Node1&#45;&gt;Node3 -->
<g id="edge2_Node000001_Node000003" class="edge">
<title>Node1&#45;&gt;Node3</title>
<g id="a_edge2_Node000001_Node000003"><a xlink:title=" ">
<path fill="none" stroke="#63b8ff" d="M106.55,-96.48C124.86,-100.93 146.39,-106.16 165.74,-110.85"/>
<polygon fill="#63b8ff" stroke="#63b8ff" points="164.82,-114.23 175.37,-113.19 166.47,-107.43 164.82,-114.23"/>
</a>
</g>
</g>
<!-- Node4 -->
<g id="Node000004" class="node">
<title>Node4</title>
<g id="a_Node000004"><a xlink:href="group__tea5767__base__driver.html#ga0f7e6c920425f29a36ba1c8f577d34c1" target="_top" xlink:title="enable or disable right mute">
<polygon fill="white" stroke="#666666" points="281,-96 160.75,-96 160.75,-76 281,-76 281,-96"/>
<text xml:space="preserve" text-anchor="middle" x="220.88" y="-82.5" font-family="Helvetica,sans-Serif" font-size="10.00">tea5767_set_right_mute</text>
</a>
</g>
</g>
<!-- Node1&#45;&gt;Node4 -->
<g id="edge3_Node000001_Node000004" class="edge">
<title>Node1&#45;&gt;Node4</title>
<g id="a_edge3_Node000001_Node000004"><a xlink:title=" ">
<path fill="none" stroke="#63b8ff" d="M125.23,-86C132.98,-86 140.95,-86 148.83,-86"/>
<polygon fill="#63b8ff" stroke="#63b8ff" points="148.75,-89.5 158.75,-86 148.75,-82.5 148.75,-89.5"/>
</a>
</g>
</g>
<!-- Node5 -->
<g id="Node000005" class="node">
<title>Node5</title>
<g id="a_Node000005"><a xlink:href="group__tea5767__base__driver.html#ga919b6817d566981a62d16eab07a37a55" target="_top" xlink:title="enable or disable soft mute">
<polygon fill="white" stroke="#666666" points="279.88,-58 161.88,-58 161.88,-38 279.88,-38 279.88,-58"/>
<text xml:space="preserve" text-anchor="middle" x="220.88" y="-44.5" font-family="Helvetica,sans-Serif" font-size="10.00">tea5767_set_soft_mute</text>
</a>
</g>
</g>
<!-- Node1&#45;&gt;Node5 -->
<g id="edge4_Node000001_Node000005" class="edge">
<title>Node1&#45;&gt;Node5</title>
<g id="a_edge4_Node000001_Node000005"><a xlink:title=" ">
<path fill="none" stroke="#63b8ff" d="M106.55,-75.52C124.86,-71.07 146.39,-65.84 165.74,-61.15"/>
<polygon fill="#63b8ff" stroke="#63b8ff" points="166.47,-64.57 175.37,-58.81 164.82,-57.77 166.47,-64.57"/>
</a>
</g>
</g>
<!-- Node6 -->
<g id="Node000006" class="node">
<title>Node6</title>
<g id="a_Node000006"><a xlink:href="group__tea5767__base__driver.html#ga21db695348540eefd1bca72bd980cbb1" target="_top" xlink:title="write the conf">
<polygon fill="white" stroke="#666666" points="271.25,-20 170.5,-20 170.5,0 271.25,0 271.25,-20"/>
<text xml:space="preserve" text-anchor="middle" x="220.88" y="-6.5" font-family="Helvetica,sans-Serif" font-size="10.00">tea5767_write_conf</text>
</a>
</g>
</g>
<!-- Node1&#45;&gt;Node6 -->
<g id="edge5_Node000001_Node000006" class="edge">
<title>Node1&#45;&gt;Node6</title>
<g id="a_edge5_Node000001_Node000006"><a xlink:title=" ">
<path fill="none" stroke="#63b8ff" d="M78.67,-75.62C97.38,-63.26 130.35,-42.59 160.75,-29 164.52,-27.32 168.48,-25.71 172.49,-24.2"/>
<polygon fill="#63b8ff" stroke="#63b8ff" points="173.45,-27.57 181.71,-20.93 171.11,-20.98 173.45,-27.57"/>
</a>
</g>
</g>
</g>
</svg>
