<?xml version="1.0" encoding="UTF-8" standalone="no"?>
<!DOCTYPE svg PUBLIC "-//W3C//DTD SVG 1.1//EN"
 "http://www.w3.org/Graphics/SVG/1.1/DTD/svg11.dtd">
<!-- Generated by graphviz version 13.1.0 (20250701.0955)
 -->
<!-- Title: tea5767_basic_search_down Pages: 1 -->
<svg width="327pt" height="332pt"
 viewBox="0.00 0.00 327.00 332.00" xmlns="http://www.w3.org/2000/svg" xmlns:xlink="http://www.w3.org/1999/xlink">
<g id="graph0" class="graph" transform="scale(1 1) rotate(0) translate(4 328)">
<title>tea5767_basic_search_down</title>
<!-- Node1 -->
<g id="Node000001" class="node">
<title>Node1</title>
<g id="a_Node000001"><a xlink:title="basic example search down">
<polygon fill="#999999" stroke="#666666" points="142,-172 0,-172 0,-152 142,-152 142,-172"/>
<text xml:space="preserve" text-anchor="middle" x="71" y="-158.5" font-family="Helvetica,sans-Serif" font-size="10.00">tea5767_basic_search_down</text>
</a>
</g>
</g>
<!-- Node2 -->
<g id="Node000002" class="node">
<title>Node2</title>
<g id="a_Node000002"><a xlink:href="group__tea5767__base__driver.html#ga8cfda17b3231100b1816bef347fb2cbf" target="_top" xlink:title="get the band limit flag">
<polygon fill="white" stroke="#666666" points="318.12,-324 178.38,-324 178.38,-304 318.12,-304 318.12,-324"/>
<text xml:space="preserve" text-anchor="middle" x="248.25" y="-310.5" font-family="Helvetica,sans-Serif" font-size="10.00">tea5767_get_band_limit_flag</text>
</a>
</g>
</g>
<!-- Node1&#45;&gt;Node2 -->
<g id="edge1_Node000001_Node000002" class="edge">
<title>Node1&#45;&gt;Node2</title>
<g id="a_edge1_Node000001_Node000002"><a xlink:title=" ">
<path fill="none" stroke="#63b8ff" d="M77.31,-172.5C90.63,-197.71 127.96,-262.01 178,-295 180.11,-296.39 182.33,-297.69 184.61,-298.88"/>
<polygon fill="#63b8ff" stroke="#63b8ff" points="183.07,-302.03 193.62,-302.94 185.94,-295.64 183.07,-302.03"/>
</a>
</g>
</g>
<!-- Node3 -->
<g id="Node000003" class="node">
<title>Node3</title>
<g id="a_Node000003"><a xlink:href="group__tea5767__base__driver.html#ga00f7f106c8e17427b2796a23382a6228" target="_top" xlink:title="get the ready flag">
<polygon fill="white" stroke="#666666" points="308,-286 188.5,-286 188.5,-266 308,-266 308,-286"/>
<text xml:space="preserve" text-anchor="middle" x="248.25" y="-272.5" font-family="Helvetica,sans-Serif" font-size="10.00">tea5767_get_ready_flag</text>
</a>
</g>
</g>
<!-- Node1&#45;&gt;Node3 -->
<g id="edge2_Node000001_Node000003" class="edge">
<title>Node1&#45;&gt;Node3</title>
<g id="a_edge2_Node000001_Node000003"><a xlink:title=" ">
<path fill="none" stroke="#63b8ff" d="M80.49,-172.28C97.14,-191.77 136.13,-234.17 178,-257 181.02,-258.65 184.2,-260.16 187.46,-261.55"/>
<polygon fill="#63b8ff" stroke="#63b8ff" points="186.07,-264.77 196.66,-265.04 188.55,-258.22 186.07,-264.77"/>
</a>
</g>
</g>
<!-- Node4 -->
<g id="Node000004" class="node">
<title>Node4</title>
<g id="a_Node000004"><a xlink:href="group__tea5767__base__driver.html#ga3a8aaeb53a9b0889b2a8d5dad9bb80da" target="_top" xlink:title="get the searched pll">
<polygon fill="white" stroke="#666666" points="312.88,-248 183.62,-248 183.62,-228 312.88,-228 312.88,-248"/>
<text xml:space="preserve" text-anchor="middle" x="248.25" y="-234.5" font-family="Helvetica,sans-Serif" font-size="10.00">tea5767_get_searched_pll</text>
</a>
</g>
</g>
<!-- Node1&#45;&gt;Node4 -->
<g id="edge3_Node000001_Node000004" class="edge">
<title>Node1&#45;&gt;Node4</title>
<g id="a_edge3_Node000001_Node000004"><a xlink:title=" ">
<path fill="none" stroke="#63b8ff" d="M88.33,-172.29C108.68,-184.75 144.83,-205.73 178,-219 182.62,-220.85 187.48,-222.58 192.39,-224.19"/>
<polygon fill="#63b8ff" stroke="#63b8ff" points="191.13,-227.46 201.72,-227.07 193.19,-220.77 191.13,-227.46"/>
</a>
</g>
</g>
<!-- Node5 -->
<g id="Node000005" class="node">
<title>Node5</title>
<g id="a_Node000005"><a xlink:href="group__tea5767__interface__driver.html#gada57151d96c43fee4f8c2f5e9ab4184c" target="_top" xlink:title="interface delay ms">
<polygon fill="white" stroke="#666666" points="318.5,-210 178,-210 178,-190 318.5,-190 318.5,-210"/>
<text xml:space="preserve" text-anchor="middle" x="248.25" y="-196.5" font-family="Helvetica,sans-Serif" font-size="10.00">tea5767_interface_delay_ms</text>
</a>
</g>
</g>
<!-- Node1&#45;&gt;Node5 -->
<g id="edge4_Node000001_Node000005" class="edge">
<title>Node1&#45;&gt;Node5</title>
<g id="a_edge4_Node000001_Node000005"><a xlink:title=" ">
<path fill="none" stroke="#63b8ff" d="M120.35,-172.48C141.23,-177.01 165.86,-182.35 187.84,-187.12"/>
<polygon fill="#63b8ff" stroke="#63b8ff" points="187.06,-190.53 197.58,-189.23 188.55,-183.69 187.06,-190.53"/>
</a>
</g>
</g>
<!-- Node6 -->
<g id="Node000006" class="node">
<title>Node6</title>
<g id="a_Node000006"><a xlink:href="group__tea5767__base__driver.html#gace16a5db156fa0acfd6bfd5bbb302e34" target="_top" xlink:title="read the conf">
<polygon fill="white" stroke="#666666" points="297.5,-172 199,-172 199,-152 297.5,-152 297.5,-172"/>
<text xml:space="preserve" text-anchor="middle" x="248.25" y="-158.5" font-family="Helvetica,sans-Serif" font-size="10.00">tea5767_read_conf</text>
</a>
</g>
</g>
<!-- Node1&#45;&gt;Node6 -->
<g id="edge5_Node000001_Node000006" class="edge">
<title>Node1&#45;&gt;Node6</title>
<g id="a_edge5_Node000001_Node000006"><a xlink:title=" ">
<path fill="none" stroke="#63b8ff" d="M142.27,-162C157.15,-162 172.72,-162 187.18,-162"/>
<polygon fill="#63b8ff" stroke="#63b8ff" points="186.99,-165.5 196.99,-162 186.99,-158.5 186.99,-165.5"/>
</a>
</g>
</g>
<!-- Node7 -->
<g id="Node000007" class="node">
<title>Node7</title>
<g id="a_Node000007"><a xlink:href="group__tea5767__base__driver.html#ga4c5874bf9a44ef8032403a194bef0840" target="_top" xlink:title="set the chip mode">
<polygon fill="white" stroke="#666666" points="297.5,-134 199,-134 199,-114 297.5,-114 297.5,-134"/>
<text xml:space="preserve" text-anchor="middle" x="248.25" y="-120.5" font-family="Helvetica,sans-Serif" font-size="10.00">tea5767_set_mode</text>
</a>
</g>
</g>
<!-- Node1&#45;&gt;Node7 -->
<g id="edge6_Node000001_Node000007" class="edge">
<title>Node1&#45;&gt;Node7</title>
<g id="a_edge6_Node000001_Node000007"><a xlink:title=" ">
<path fill="none" stroke="#63b8ff" d="M120.35,-151.52C141.23,-146.99 165.86,-141.65 187.84,-136.88"/>
<polygon fill="#63b8ff" stroke="#63b8ff" points="188.55,-140.31 197.58,-134.77 187.06,-133.47 188.55,-140.31"/>
</a>
</g>
</g>
<!-- Node8 -->
<g id="Node000008" class="node">
<title>Node8</title>
<g id="a_Node000008"><a xlink:href="group__tea5767__base__driver.html#ga113ae128887abac6e52918abb62df461" target="_top" xlink:title="set the pll">
<polygon fill="white" stroke="#666666" points="290.38,-96 206.12,-96 206.12,-76 290.38,-76 290.38,-96"/>
<text xml:space="preserve" text-anchor="middle" x="248.25" y="-82.5" font-family="Helvetica,sans-Serif" font-size="10.00">tea5767_set_pll</text>
</a>
</g>
</g>
<!-- Node1&#45;&gt;Node8 -->
<g id="edge7_Node000001_Node000008" class="edge">
<title>Node1&#45;&gt;Node8</title>
<g id="a_edge7_Node000001_Node000008"><a xlink:title=" ">
<path fill="none" stroke="#63b8ff" d="M88.33,-151.71C108.68,-139.25 144.83,-118.27 178,-105 183.36,-102.86 189.05,-100.86 194.77,-99.04"/>
<polygon fill="#63b8ff" stroke="#63b8ff" points="195.71,-102.41 204.28,-96.19 193.7,-95.71 195.71,-102.41"/>
</a>
</g>
</g>
<!-- Node9 -->
<g id="Node000009" class="node">
<title>Node9</title>
<g id="a_Node000009"><a xlink:href="group__tea5767__base__driver.html#ga3eb73e7d515d57f976116da808e1d661" target="_top" xlink:title="set the search mode">
<polygon fill="white" stroke="#666666" points="314.75,-58 181.75,-58 181.75,-38 314.75,-38 314.75,-58"/>
<text xml:space="preserve" text-anchor="middle" x="248.25" y="-44.5" font-family="Helvetica,sans-Serif" font-size="10.00">tea5767_set_search_mode</text>
</a>
</g>
</g>
<!-- Node1&#45;&gt;Node9 -->
<g id="edge8_Node000001_Node000009" class="edge">
<title>Node1&#45;&gt;Node9</title>
<g id="a_edge8_Node000001_Node000009"><a xlink:title=" ">
<path fill="none" stroke="#63b8ff" d="M80.49,-151.72C97.14,-132.23 136.13,-89.83 178,-67 181.02,-65.35 184.2,-63.84 187.46,-62.45"/>
<polygon fill="#63b8ff" stroke="#63b8ff" points="188.55,-65.78 196.66,-58.96 186.07,-59.23 188.55,-65.78"/>
</a>
</g>
</g>
<!-- Node10 -->
<g id="Node000010" class="node">
<title>Node10</title>
<g id="a_Node000010"><a xlink:href="group__tea5767__base__driver.html#ga21db695348540eefd1bca72bd980cbb1" target="_top" xlink:title="write the conf">
<polygon fill="white" stroke="#666666" points="298.62,-20 197.88,-20 197.88,0 298.62,0 298.62,-20"/>
<text xml:space="preserve" text-anchor="middle" x="248.25" y="-6.5" font-family="Helvetica,sans-Serif" font-size="10.00">tea5767_write_conf</text>
</a>
</g>
</g>
<!-- Node1&#45;&gt;Node10 -->
<g id="edge9_Node000001_Node000010" class="edge">
<title>Node1&#45;&gt;Node10</title>
<g id="a_edge9_Node000001_Node000010"><a xlink:title=" ">
<path fill="none" stroke="#63b8ff" d="M77.31,-151.5C90.63,-126.29 127.96,-61.99 178,-29 180.87,-27.11 183.93,-25.4 187.1,-23.86"/>
<polygon fill="#63b8ff" stroke="#63b8ff" points="188.25,-27.17 196.13,-20.09 185.55,-20.72 188.25,-27.17"/>
</a>
</g>
</g>
</g>
</svg>
